<svg width="192" height="192" viewBox="0 0 192 192" fill="none" xmlns="http://www.w3.org/2000/svg">
<path d="M192 96C192 42.9797 149.02 0 95.9985 0C42.9801 0 0 42.9797 0 96C0 149.017 42.9801 192 95.9985 192C149.02 192 192 149.017 192 96Z" fill="url(#paint0_linear_863_120600)"/>
<path d="M9.60037 96C9.60038 143.719 48.284 182.4 96.0019 182.4C143.72 182.4 182.4 143.719 182.4 96C182.4 48.2815 143.72 9.60002 96.0019 9.60003C48.2839 9.60003 9.60037 48.2815 9.60037 96V96Z" fill="url(#paint1_linear_863_120600)"/>
<path d="M172.8 96C172.8 53.5837 138.416 19.2 95.999 19.2C53.5843 19.2 19.2002 53.5837 19.2002 96C19.2002 138.413 53.5843 172.8 95.999 172.8C138.416 172.8 172.8 138.413 172.8 96Z" fill="url(#paint2_linear_863_120600)"/>
<path d="M172.8 96C172.8 53.5837 138.416 19.2 95.999 19.2C53.5843 19.2 19.2002 53.5837 19.2002 96C19.2002 138.413 53.5843 172.8 95.999 172.8C138.416 172.8 172.8 138.413 172.8 96Z" fill="white" fill-opacity="0.64"/>
<mask id="mask0_863_120600" style="mask-type:alpha" maskUnits="userSpaceOnUse" x="28" y="28" width="136" height="136">
<path d="M163.2 96C163.2 58.8881 133.112 28.8 95.9985 28.8C58.8877 28.8 28.7998 58.8881 28.7998 96C28.7998 133.112 58.8877 163.2 95.9985 163.2C133.112 163.2 163.2 133.112 163.2 96Z" fill="url(#paint3_linear_863_120600)"/>
<path d="M163.2 96C163.2 58.8881 133.112 28.8 95.9985 28.8C58.8877 28.8 28.7998 58.8881 28.7998 96C28.7998 133.112 58.8877 163.2 95.9985 163.2C133.112 163.2 163.2 133.112 163.2 96Z" fill="white"/>
</mask>
<g mask="url(#mask0_863_120600)">
<rect width="134.4" height="134.4" transform="translate(28.7998 28.8)" fill="white"/>
<path d="M78.3806 70.8004L77.7345 71.4451L62.9343 86.2134L58.4707 90.6674C58.2355 91.0135 57.9365 91.3118 57.5897 91.5465C56.9261 91.9813 56.1165 92.1355 55.339 91.975C54.5615 91.8146 53.8797 91.3527 53.4433 90.6908C53.1142 90.1985 52.9422 89.6182 52.95 89.0265V75.02C53.0716 71.7291 54.4679 68.6136 56.8449 66.3291C59.2219 64.0447 62.3944 62.7694 65.6946 62.7716H78.3806L74.6805 66.5223L70.3931 70.8004H78.3806Z" fill="url(#paint4_linear_863_120600)"/>
<path d="M139.05 78.8877V79.8253C138.836 87.7864 135.75 95.403 130.358 101.275L88.3648 143.177C86.0384 145.252 83.0278 146.399 79.9075 146.4C79.0611 146.384 78.2171 146.305 77.3821 146.166L74.9154 145.404C72.2774 144.49 69.7065 143.393 67.2216 142.122L66.693 141.829C66.4661 141.659 66.2835 141.438 66.1608 141.183C66.0381 140.927 65.9789 140.647 65.9883 140.364C65.9823 139.964 66.1059 139.574 66.3406 139.25L113.443 92.1909C113.672 91.9425 113.869 91.667 114.03 91.3704C114.323 90.8093 114.56 90.2203 114.735 89.6123C114.823 89.2265 114.882 88.8347 114.911 88.4402C114.963 88.1898 114.983 87.9338 114.97 87.6783C114.97 85.5956 114.141 83.5981 112.665 82.1254C111.189 80.6527 109.187 79.8253 107.1 79.8253H89.8918L101.462 68.2802C101.809 68.0456 102.108 67.7472 102.343 67.4012C102.654 66.9107 102.818 66.3409 102.813 65.7602C102.813 64.9676 102.497 64.2073 101.935 63.6468C101.374 63.0863 100.612 62.7714 99.8174 62.7714H75.2678C75.2678 62.7714 77.617 60.1928 78.5567 59.2551C80.671 56.9696 83.2552 54.0393 86.0743 51.9882C91.7582 47.8165 98.6348 45.5772 105.691 45.6003C109.869 45.6055 114.01 46.3803 117.907 47.8859L119.492 48.5305C122.313 49.8256 124.941 51.5017 127.304 53.5119L127.773 53.9221H127.832C131.357 57.0489 134.179 60.8848 136.113 65.1775C138.046 69.4703 139.047 74.1227 139.05 78.8291V78.8877Z" fill="url(#paint5_linear_863_120600)"/>
<path d="M105.044 62.7716H75.4435L61.6417 76.5437C61.3749 76.8175 61.1954 77.164 61.1257 77.5394C61.056 77.9149 61.0992 78.3025 61.25 78.6535C61.4007 79.0045 61.6522 79.3031 61.9728 79.5116C62.2933 79.7202 62.6685 79.8294 63.0512 79.8255H95.1184L107.511 67.4014C107.867 66.9291 108.053 66.3511 108.039 65.7604C108.039 64.9678 107.724 64.2075 107.162 63.647C106.6 63.0865 105.838 62.7716 105.044 62.7716ZM92.7104 71.3279C92.2064 71.3281 91.7222 71.1324 91.3603 70.7823C90.9985 70.4322 90.7876 69.9552 90.7723 69.4525C90.7802 69.1004 90.8816 68.7566 91.066 68.4562V68.4562C91.2152 68.2194 91.4159 68.0191 91.6533 67.8702V67.8702C91.9507 67.6783 92.2975 67.5765 92.6517 67.5772C93.1502 67.5694 93.6313 67.7595 93.9892 68.1057C94.3472 68.4519 94.5527 68.9259 94.5605 69.4232C94.5683 69.9206 94.3777 70.4007 94.0308 70.7579C93.6838 71.1151 93.2089 71.3201 92.7104 71.3279Z" fill="#E35CC7"/>
<path d="M79.2606 62.7716H75.2082L61.5825 76.3093C61.289 76.5962 61.0883 76.9643 61.0065 77.3661C60.9247 77.7679 60.9654 78.185 61.1235 78.5635C61.2815 78.942 61.5496 79.2645 61.8932 79.4895C62.2367 79.7144 62.6399 79.8315 63.0508 79.8255H69.335L86.4258 62.7716H79.2606Z" fill="#8961D0"/>
<path d="M92.6528 71.3276C93.6908 71.3276 94.5322 70.488 94.5322 69.4523C94.5322 68.4165 93.6908 67.5769 92.6528 67.5769C91.6149 67.5769 90.7734 68.4165 90.7734 69.4523C90.7734 70.488 91.6149 71.3276 92.6528 71.3276Z" fill="#8961D0"/>
<path opacity="0.48" d="M92.6528 71.3276C93.6908 71.3276 94.5322 70.488 94.5322 69.4523C94.5322 68.4165 93.6908 67.5769 92.6528 67.5769C91.6149 67.5769 90.7734 68.4165 90.7734 69.4523C90.7734 70.488 91.6149 71.3276 92.6528 71.3276Z" fill="url(#paint6_linear_863_120600)"/>
<path opacity="0.48" d="M94.472 69.4522C94.4722 68.9649 94.2823 68.4965 93.9424 68.1465C93.6026 67.7964 93.1395 67.5921 92.6513 67.5769C92.3209 67.5857 91.9979 67.6759 91.711 67.8395C91.424 68.0031 91.1821 68.235 91.0068 68.5146C91.3651 68.205 91.8251 68.0381 92.2989 68.0457C92.538 68.0457 92.7748 68.0927 92.9957 68.184C93.2166 68.2753 93.4173 68.4092 93.5863 68.5779C93.7554 68.7466 93.8895 68.9468 93.981 69.1672C94.0725 69.3877 94.1196 69.6239 94.1196 69.8625V69.9211C94.131 70.2309 94.0492 70.5371 93.8847 70.8002C94.0713 70.6287 94.2199 70.4202 94.321 70.1881C94.4222 69.956 94.4736 69.7054 94.472 69.4522V69.4522Z" fill="#480061"/>
<path opacity="0.75" d="M105.044 62.7716H75.4436L61.7005 76.5437C61.4372 76.8139 61.2587 77.155 61.1871 77.5251C61.1154 77.8951 61.1537 78.2781 61.2972 78.6267C61.4407 78.9754 61.6832 79.2746 61.9948 79.4876C62.3065 79.7005 62.6737 79.818 63.0513 79.8255H95.1186L107.511 67.4014C107.867 66.9291 108.053 66.3511 108.039 65.7604C108.039 64.9678 107.724 64.2075 107.162 63.647C106.6 63.0865 105.839 62.7716 105.044 62.7716ZM92.6519 71.3279C92.405 71.3279 92.1607 71.2794 91.9326 71.1851C91.7046 71.0909 91.4974 70.9527 91.3229 70.7786C91.1484 70.6045 91.01 70.3977 90.9155 70.1702C90.8211 69.9427 90.7725 69.6988 90.7725 69.4525C90.7804 69.1004 90.8817 68.7566 91.0661 68.4562V68.4562C91.2153 68.2194 91.4161 68.0191 91.6534 67.8702V67.8702C91.9509 67.6783 92.2977 67.5765 92.6519 67.5772C93.1401 67.5924 93.6031 67.7967 93.943 68.1468C94.2828 68.4968 94.4728 68.9651 94.4725 69.4525C94.4601 69.936 94.266 70.3972 93.9287 70.7445C93.5915 71.0919 93.1357 71.3001 92.6519 71.3279V71.3279Z" fill="url(#paint7_linear_863_120600)"/>
<path d="M79.2606 62.7716H75.2082L61.5825 76.3093C61.289 76.5962 61.0883 76.9643 61.0065 77.3661C60.9247 77.7679 60.9654 78.185 61.1235 78.5635C61.2815 78.942 61.5496 79.2645 61.8932 79.4895C62.2367 79.7144 62.6399 79.8315 63.0508 79.8255H69.335L86.4258 62.7716H79.2606Z" fill="url(#paint8_linear_863_120600)"/>
<path opacity="0.43" d="M98.643 79.8255L107.276 67.6943L95.1191 79.8255H98.643Z" fill="url(#paint9_linear_863_120600)"/>
</g>
<defs>
<linearGradient id="paint0_linear_863_120600" x1="192" y1="-0.000765816" x2="-17.6528" y2="21.7357" gradientUnits="userSpaceOnUse">
<stop stop-color="#DC42C9"/>
<stop offset="1" stop-color="#952D88"/>
</linearGradient>
<linearGradient id="paint1_linear_863_120600" x1="9.60046" y1="182.401" x2="198.288" y2="162.838" gradientUnits="userSpaceOnUse">
<stop stop-color="#DC42C9"/>
<stop offset="1" stop-color="#952D88"/>
</linearGradient>
<linearGradient id="paint2_linear_863_120600" x1="172.8" y1="19.1993" x2="5.07793" y2="36.5885" gradientUnits="userSpaceOnUse">
<stop stop-color="#DC42C9"/>
<stop offset="1" stop-color="#952D88"/>
</linearGradient>
<linearGradient id="paint3_linear_863_120600" x1="36.7057" y1="43.6236" x2="152.329" y2="147.388" gradientUnits="userSpaceOnUse">
<stop stop-color="#00E599"/>
<stop offset="1" stop-color="#00AF92"/>
</linearGradient>
<linearGradient id="paint4_linear_863_120600" x1="52.95" y1="77.4052" x2="78.3806" y2="77.4052" gradientUnits="userSpaceOnUse">
<stop stop-color="#4750D9"/>
<stop offset="0.41" stop-color="#5C45DC"/>
<stop offset="1" stop-color="#8131E1"/>
</linearGradient>
<linearGradient id="paint5_linear_863_120600" x1="65.9883" y1="96.0002" x2="139.05" y2="96.0002" gradientUnits="userSpaceOnUse">
<stop stop-color="#E96161"/>
<stop offset="0.2" stop-color="#E65B76"/>
<stop offset="0.61" stop-color="#DF4AAC"/>
<stop offset="1" stop-color="#D739E6"/>
</linearGradient>
<linearGradient id="paint6_linear_863_120600" x1="90.7676" y1="69.4523" x2="94.4852" y2="69.4523" gradientUnits="userSpaceOnUse">
<stop stop-color="#B100D3"/>
<stop offset="0.23" stop-color="#9C00C0"/>
<stop offset="0.69" stop-color="#67008E"/>
<stop offset="1" stop-color="#40006A"/>
</linearGradient>
<linearGradient id="paint7_linear_863_120600" x1="61.1543" y1="71.2986" x2="108.039" y2="71.2986" gradientUnits="userSpaceOnUse">
<stop stop-color="#D0D7D3"/>
<stop offset="0.52" stop-color="#D9C5E8"/>
<stop offset="1" stop-color="#E3B1FF"/>
</linearGradient>
<linearGradient id="paint8_linear_863_120600" x1="61.0011" y1="71.2986" x2="86.4199" y2="71.2986" gradientUnits="userSpaceOnUse">
<stop stop-color="#B277EC"/>
<stop offset="0.77" stop-color="#9336E7"/>
<stop offset="1" stop-color="#8921E6"/>
</linearGradient>
<linearGradient id="paint9_linear_863_120600" x1="95.1015" y1="73.7599" x2="107.282" y2="73.7599" gradientUnits="userSpaceOnUse">
<stop stop-opacity="0.5"/>
<stop offset="0.1" stop-color="#201322" stop-opacity="0.59"/>
<stop offset="0.25" stop-color="#4A2C4E" stop-opacity="0.72"/>
<stop offset="0.4" stop-color="#6D4173" stop-opacity="0.82"/>
<stop offset="0.55" stop-color="#885190" stop-opacity="0.9"/>
<stop offset="0.7" stop-color="#9B5DA4" stop-opacity="0.95"/>
<stop offset="0.85" stop-color="#A664B0" stop-opacity="0.99"/>
<stop offset="1" stop-color="#AA66B4"/>
</linearGradient>
</defs>
</svg>
