<svg width="249" height="60" viewBox="0 0 249 60" fill="none" xmlns="http://www.w3.org/2000/svg">
<g clip-path="url(#clip0_160_99)">
<path d="M104.607 59.4407C94.6259 59.4409 86.5342 50.9456 86.5342 40.4661C86.5339 29.9868 94.6249 21.4915 104.606 21.4915C114.586 21.4911 122.677 29.9865 122.677 40.4661C122.666 50.9398 114.583 59.4279 104.607 59.4407ZM104.607 27.9804C98.04 27.9804 92.716 33.5704 92.716 40.4661C92.716 47.3617 98.04 52.9517 104.607 52.9517C111.175 52.9517 116.499 47.3617 116.499 40.4661C116.491 33.5737 111.172 27.9883 104.607 27.9804Z" fill="url(#paint0_linear_160_99)"/>
<path d="M83.2044 40.4661C83.2033 27.9853 71.9276 18.9021 60.446 22.1331C48.9645 25.3641 43.5263 39.1505 49.47 49.9592C55.4136 60.7676 69.5041 62.7152 77.9092 53.89C79.1327 52.6009 79.1306 50.515 77.9046 49.2288C76.6787 47.9425 74.692 47.9419 73.4653 49.2275C68.2438 54.7068 59.5663 53.8609 55.3945 47.4663C51.2227 41.0716 53.6066 32.2703 60.359 29.1377C67.1113 26.0051 74.9142 30.0805 76.6081 37.6247H69.2881C67.6102 37.5826 66.2285 38.9992 66.2285 40.7613C66.2285 42.5234 67.6102 43.9399 69.2881 43.8979H80.0242C80.9274 43.8967 81.7813 43.4658 82.3464 42.726C82.8973 42.1163 83.2044 41.3073 83.2044 40.4661Z" fill="url(#paint1_linear_160_99)"/>
<path d="M45.4123 16.0306C47.7342 13.5927 47.7342 9.63991 45.4123 7.20194C43.0903 4.76397 39.3257 4.76397 37.0038 7.20194C34.6818 9.63991 34.6818 13.5927 37.0038 16.0306C39.3257 18.4686 43.0903 18.4686 45.4123 16.0306Z" fill="url(#paint2_linear_160_99)"/>
<path d="M9.11736 9.21883C9.11736 7.09567 7.39619 5.37451 5.27303 5.37451C3.14987 5.37451 1.42871 7.09567 1.42871 9.21883V54.942C1.42871 57.0652 3.14987 58.7863 5.27303 58.7863C7.39619 58.7863 9.11736 57.0652 9.11736 54.942V9.21883Z" fill="url(#paint3_linear_160_99)"/>
<path d="M8.35239 6.98656C7.01134 5.2845 4.59802 5.05664 2.9621 6.47762C1.32618 7.8986 1.08714 10.4303 2.42819 12.1324L37.7148 56.9181C39.0559 58.6201 41.4692 58.848 43.1051 57.427C44.741 56.006 44.9801 53.4743 43.639 51.7722L8.35239 6.98656Z" fill="url(#paint4_linear_160_99)"/>
<path d="M204.915 59.1197C203.18 59.1197 201.775 57.6428 201.775 55.8216V38.3417C201.706 32.9091 197.492 28.5433 192.318 28.5433C187.143 28.5433 182.929 32.9091 182.86 38.3417V55.8216C182.86 57.644 181.453 59.1215 179.717 59.1215C177.981 59.1215 176.574 57.644 176.574 55.8216V38.3417C176.574 29.2159 183.62 21.8179 192.312 21.8179C201.003 21.8179 208.049 29.2159 208.049 38.3417V55.8216C208.05 57.6407 206.647 59.1167 204.915 59.1197Z" fill="url(#paint5_linear_160_99)"/>
<path d="M248.108 40.4661C248.107 27.9853 236.831 18.9021 225.349 22.1331C213.868 25.3641 208.43 39.1505 214.373 49.9592C220.317 60.7676 234.407 62.7152 242.813 53.8899C244.039 52.6025 244.039 50.5151 242.813 49.2275C241.586 47.94 239.598 47.94 238.372 49.2275C233.15 54.7068 224.473 53.8609 220.301 47.4664C216.129 41.0716 218.513 32.2703 225.266 29.1377C232.018 26.0051 239.821 30.0805 241.515 37.6247H234.191C232.569 37.6654 231.275 39.0577 231.275 40.7613C231.275 42.4648 232.569 43.8572 234.191 43.8979H244.928C245.831 43.8967 246.685 43.4658 247.25 42.726C247.801 42.1163 248.108 41.3074 248.108 40.4661Z" fill="url(#paint6_linear_160_99)"/>
<path d="M157.679 59.1427H143.048C135.234 59.1328 128.903 52.485 128.894 44.2812V3.29977C128.894 1.47736 130.301 0 132.036 0C133.772 0 135.179 1.47736 135.179 3.29977V44.2812C135.184 48.8451 138.706 52.5436 143.053 52.5485H157.684C162.031 52.5436 165.554 48.8451 165.558 44.2812V25.2085C165.558 23.3861 166.965 21.9088 168.701 21.9088C170.436 21.9088 171.844 23.3861 171.844 25.2085V44.2812C171.835 52.4896 165.497 59.1397 157.679 59.1427Z" fill="url(#paint7_linear_160_99)"/>
<path d="M172.1 15.6671C173.939 13.7359 173.939 10.6048 172.1 8.67355C170.261 6.74232 167.278 6.74232 165.439 8.67355C163.6 10.6048 163.6 13.7359 165.439 15.6671C167.278 17.5984 170.261 17.5984 172.1 15.6671Z" fill="url(#paint8_linear_160_99)"/>
</g>
<defs>
<linearGradient id="paint0_linear_160_99" x1="86.5342" y1="40.4661" x2="122.677" y2="40.4661" gradientUnits="userSpaceOnUse">
<stop stop-color="#84D8D1"/>
<stop offset="1" stop-color="#06CCAB"/>
</linearGradient>
<linearGradient id="paint1_linear_160_99" x1="47.0371" y1="40.4635" x2="83.2044" y2="40.4635" gradientUnits="userSpaceOnUse">
<stop stop-color="#84D8D1"/>
<stop offset="1" stop-color="#06CCAB"/>
</linearGradient>
<linearGradient id="paint2_linear_160_99" x1="37.0038" y1="7.20194" x2="45.822" y2="15.6004" gradientUnits="userSpaceOnUse">
<stop stop-color="#84D8D1"/>
<stop offset="1" stop-color="#06CCAB"/>
</linearGradient>
<linearGradient id="paint3_linear_160_99" x1="1.42871" y1="32.0804" x2="9.11736" y2="32.0804" gradientUnits="userSpaceOnUse">
<stop stop-color="#84D8D1"/>
<stop offset="1" stop-color="#06CCAB"/>
</linearGradient>
<linearGradient id="paint4_linear_160_99" x1="20.0715" y1="34.5252" x2="26.2281" y2="29.6744" gradientUnits="userSpaceOnUse">
<stop stop-color="#84D8D1"/>
<stop offset="1" stop-color="#06CCAB"/>
</linearGradient>
<linearGradient id="paint5_linear_160_99" x1="176.574" y1="40.4697" x2="208.049" y2="40.4697" gradientUnits="userSpaceOnUse">
<stop stop-color="#84D8D1"/>
<stop offset="1" stop-color="#06CCAB"/>
</linearGradient>
<linearGradient id="paint6_linear_160_99" x1="211.94" y1="40.4635" x2="248.108" y2="40.4635" gradientUnits="userSpaceOnUse">
<stop stop-color="#84D8D1"/>
<stop offset="1" stop-color="#06CCAB"/>
</linearGradient>
<linearGradient id="paint7_linear_160_99" x1="128.894" y1="29.5714" x2="171.844" y2="29.5714" gradientUnits="userSpaceOnUse">
<stop stop-color="#84D8D1"/>
<stop offset="1" stop-color="#06CCAB"/>
</linearGradient>
<linearGradient id="paint8_linear_160_99" x1="165.439" y1="8.67355" x2="172.424" y2="15.3264" gradientUnits="userSpaceOnUse">
<stop stop-color="#84D8D1"/>
<stop offset="1" stop-color="#06CCAB"/>
</linearGradient>
<clipPath id="clip0_160_99">
<rect width="248.108" height="60" fill="white"/>
</clipPath>
</defs>
</svg>
