<?xml version="1.0" encoding="UTF-8"?><svg id="Logo_elements" xmlns="http://www.w3.org/2000/svg" viewBox="0 0 1080 466.77"><defs><style>.cls-1{fill:#fff;fill-rule:evenodd;stroke-width:0px;}</style></defs><path id="FullLogo-White" class="cls-1" d="M1048,378.66c16.1,20.34,9.69,50.32-13.32,62.3l-40.58,21.13c-18.03,9.39-40.21,4.27-52.3-12.07l-76.96-103.98-56.5,67.38c-16.76,19.98-48.07,18.04-62.22-3.86l-19.57-30.26c-8.78-13.58-8.2-31.19,1.46-44.17l65.23-87.64-73.78-103.47c-8.29-11.62-9.99-26.71-4.5-39.89l18-43.21c9.88-23.72,41.66-28,57.47-7.75l75.6,96.86L970.03,15.99c15.41-19.86,44.82-21.48,62.32-3.43l35.99,37.12c14.79,15.26,15.6,39.24,1.88,55.46l-123.35,145.75,101.13,127.77ZM1015.66,28.74c-7.65-7.89-20.52-7.19-27.26,1.5l-118.26,152.4c-2.06,2.66-6.08,2.67-8.15.01l-89.89-115.17c-4.86-6.23-14.64-4.91-17.68,2.38l-18,43.21c-2.4,5.77-1.66,12.36,1.97,17.45l81.43,114.19c1.3,1.83,1.28,4.28-.06,6.08l-73.09,98.21c-3.86,5.19-4.09,12.23-.58,17.67l19.56,30.26c5.66,8.76,18.19,9.54,24.89,1.54l71.24-84.95c2.15-2.56,6.12-2.44,8.11.25l90.61,122.41c5.29,7.15,14.99,9.39,22.88,5.28l40.58-21.13c10.07-5.24,12.87-18.36,5.83-27.26l-110.32-139.37c-1.53-1.93-1.48-4.67.11-6.54l132.91-157.05c6.01-7.1,5.65-17.59-.82-24.27l-35.99-37.12ZM151.37,163.26c14.39,12.82,21.59,31.34,21.59,55.56v119.8c0,3.46-2.81,6.27-6.27,6.27h-19.18c-3.46,0-6.27-2.81-6.27-6.27v-108.6c0-20.47-4.42-35.31-13.26-44.51-4.6-4.64-10.13-8.27-16.23-10.64-6.1-2.38-12.63-3.45-19.17-3.15-10.29-.04-20.45,2.31-29.66,6.87-9.66,5.06-17.58,12.89-22.71,22.49-6.33,12.06-9.39,25.57-8.87,39.17v98.36c0,3.46-2.81,6.27-6.27,6.27H7c-3.46,0-6.27-2.81-6.27-6.27v-175.35c0-4.46,4.51-7.49,8.64-5.81l14.7,5.99c3.33,1.36,5.6,4.5,5.84,8.09l.47,7.06c6.08-11.36,15.56-20.52,27.11-26.19,12.17-5.77,25.49-8.66,38.95-8.46,20.09-.72,39.7,6.18,54.93,19.32ZM391.65,258.77h-143.03c1.83,20,8.46,35.5,19.9,46.52,5.92,5.56,12.89,9.88,20.5,12.72,7.61,2.84,15.7,4.14,23.82,3.81,12.44.44,24.81-2.13,36.05-7.5,7.08-3.41,12.89-8.88,16.73-15.61,1.83-3.21,5.8-4.49,9.08-2.77l14.43,7.55c3.15,1.65,4.21,5.66,2.26,8.62-7.12,10.85-16.76,19.86-28.13,26.25-15.59,7.93-32.94,11.74-50.42,11.05-29.7,0-53.01-9.07-69.93-27.2-16.92-18.14-25.39-43.21-25.42-75.22,0-32.04,8.01-57.13,24.03-75.27,16.02-18.14,38.95-27.2,68.78-27.2,16.72-.42,33.22,3.8,47.68,12.21,13.12,7.85,23.66,19.36,30.33,33.11,6.98,14.62,10.49,30.66,10.24,46.86.05,5.52-.2,11.03-.74,16.52-.31,3.15-2.97,5.54-6.13,5.54ZM268.51,187.19c-10.67,10.25-17.17,24.67-19.51,43.26h119.39c-1.05-16.04-7.43-31.26-18.12-43.26-5.18-5.22-11.4-9.3-18.25-11.99s-14.19-3.9-21.54-3.59c-7.68-.33-15.34.88-22.55,3.55-7.21,2.67-13.8,6.76-19.41,12.02ZM607.3,171.21c16.95,18.1,25.42,43.19,25.42,75.27s-8.48,57.15-25.42,75.22c-16.92,18.14-40.23,27.2-69.93,27.2s-53.01-9.07-69.93-27.2c-16.95-18.1-25.42-43.18-25.42-75.22s8.48-57.13,25.42-75.27c16.92-18.1,40.23-27.17,69.93-27.2,29.7-.03,53.01,9.04,69.93,27.2ZM490.46,190.79c-11.28,13.43-16.92,31.82-16.92,55.18s5.64,41.73,16.92,55.13c11.28,13.39,26.91,20.09,46.91,20.09s35.61-6.7,46.86-20.09c11.28-13.39,16.93-31.77,16.97-55.13.03-23.36-5.62-41.75-16.97-55.18-11.31-13.43-26.93-20.12-46.86-20.09-19.93.03-35.58,6.73-46.96,20.09h.05Z"/></svg>