<svg width="100" height="86" viewBox="0 0 100 86" fill="none" xmlns="http://www.w3.org/2000/svg">
<path fill-rule="evenodd" clip-rule="evenodd" d="M49.9687 84.7175C47.5199 85.1713 44.9948 85.4015 42.4157 85.4015H0V42.9859C0 19.5613 18.9896 0.571777 42.4141 0.571777H42.4157C44.9948 0.571777 47.5199 0.802065 49.9687 1.25585C30.146 4.80702 15.1076 22.1402 15.1076 42.9859V42.9874C15.1076 63.8329 30.146 81.1663 49.9687 84.7175Z" fill="#77F7CC"/>
<path fill-rule="evenodd" clip-rule="evenodd" d="M49.9688 1.25585C52.4176 0.802065 54.9429 0.571777 57.5218 0.571777H99.9374V42.9874C99.9374 66.412 80.9481 85.4015 57.5233 85.4015H57.5218C54.9429 85.4015 52.4176 85.1713 49.9688 84.7175C69.7917 81.1663 84.8299 63.8329 84.8299 42.9874V42.9859C84.8299 22.1402 69.7917 4.80702 49.9688 1.25585Z" fill="#27A7FD"/>
<path fill-rule="evenodd" clip-rule="evenodd" d="M49.9685 1.25586C69.7915 4.80703 84.8296 22.1402 84.8296 42.9859V42.9874C84.8296 63.8329 69.7915 81.1663 49.9685 84.7175C30.1458 81.1663 15.1074 63.8329 15.1074 42.9874V42.9859C15.1074 22.1402 30.1458 4.80703 49.9685 1.25586Z" fill="#16D4C4"/>
<path d="M49.9687 46.8235C52.0877 46.8235 53.8055 45.1057 53.8055 42.9867C53.8055 40.8676 52.0877 39.1498 49.9687 39.1498C47.8496 39.1498 46.1318 40.8676 46.1318 42.9867C46.1318 45.1057 47.8496 46.8235 49.9687 46.8235Z" fill="white"/>
<path d="M38.372 46.8235C40.491 46.8235 42.2088 45.1057 42.2088 42.9867C42.2088 40.8676 40.491 39.1498 38.372 39.1498C36.253 39.1498 34.5352 40.8676 34.5352 42.9867C34.5352 45.1057 36.253 46.8235 38.372 46.8235Z" fill="white"/>
<path d="M61.5653 46.8235C63.6843 46.8235 65.4021 45.1057 65.4021 42.9867C65.4021 40.8676 63.6843 39.1498 61.5653 39.1498C59.4463 39.1498 57.7285 40.8676 57.7285 42.9867C57.7285 45.1057 59.4463 46.8235 61.5653 46.8235Z" fill="white"/>
</svg>
